<mxfile host="app.diagrams.net" modified="2024-01-27T21:20:01.752Z" agent="Mozilla/5.0 (Windows NT 10.0; Win64; x64) AppleWebKit/537.36 (KHTML, like Gecko) Chrome/121.0.0.0 Safari/537.36" etag="xg7SmVMQ7j75YbBqsayI" version="23.0.2" type="github">
  <diagram id="R2lEEEUBdFMjLlhIrx00" name="Page-1">
    <mxGraphModel dx="2193" dy="1333" grid="0" gridSize="10" guides="1" tooltips="1" connect="1" arrows="0" fold="1" page="0" pageScale="1" pageWidth="850" pageHeight="1100" math="0" shadow="0" extFonts="Permanent Marker^https://fonts.googleapis.com/css?family=Permanent+Marker">
      <root>
        <mxCell id="0" />
        <mxCell id="1" parent="0" />
        <mxCell id="OB0xpc5vKLzRvDVQ2PZP-1" value="Rental Property" style="rounded=1;arcSize=10;whiteSpace=wrap;html=1;align=center;" vertex="1" parent="1">
          <mxGeometry x="-10" y="200" width="100" height="40" as="geometry" />
        </mxCell>
        <mxCell id="OB0xpc5vKLzRvDVQ2PZP-3" value="Property Manager" style="rounded=1;arcSize=10;whiteSpace=wrap;html=1;align=center;" vertex="1" parent="1">
          <mxGeometry x="460" y="338" width="100" height="40" as="geometry" />
        </mxCell>
        <mxCell id="OB0xpc5vKLzRvDVQ2PZP-27" style="edgeStyle=none;shape=connector;rounded=0;orthogonalLoop=1;jettySize=auto;html=1;exitX=0;exitY=0.5;exitDx=0;exitDy=0;entryX=1;entryY=0.5;entryDx=0;entryDy=0;labelBackgroundColor=default;strokeColor=default;align=center;verticalAlign=middle;fontFamily=Helvetica;fontSize=11;fontColor=default;endArrow=none;" edge="1" parent="1" source="OB0xpc5vKLzRvDVQ2PZP-4" target="OB0xpc5vKLzRvDVQ2PZP-15">
          <mxGeometry relative="1" as="geometry" />
        </mxCell>
        <mxCell id="OB0xpc5vKLzRvDVQ2PZP-33" style="edgeStyle=none;shape=connector;rounded=0;orthogonalLoop=1;jettySize=auto;html=1;exitX=1;exitY=0.5;exitDx=0;exitDy=0;labelBackgroundColor=default;strokeColor=default;align=center;verticalAlign=middle;fontFamily=Helvetica;fontSize=11;fontColor=default;endArrow=none;" edge="1" parent="1" source="OB0xpc5vKLzRvDVQ2PZP-4">
          <mxGeometry relative="1" as="geometry">
            <mxPoint x="560" y="420" as="targetPoint" />
          </mxGeometry>
        </mxCell>
        <mxCell id="OB0xpc5vKLzRvDVQ2PZP-4" value="Renter" style="rounded=1;arcSize=10;whiteSpace=wrap;html=1;align=center;" vertex="1" parent="1">
          <mxGeometry x="410" y="490" width="100" height="40" as="geometry" />
        </mxCell>
        <mxCell id="OB0xpc5vKLzRvDVQ2PZP-5" value="Rental Group" style="rounded=1;arcSize=10;whiteSpace=wrap;html=1;align=center;" vertex="1" parent="1">
          <mxGeometry x="90" y="630" width="100" height="40" as="geometry" />
        </mxCell>
        <mxCell id="OB0xpc5vKLzRvDVQ2PZP-26" style="edgeStyle=none;shape=connector;rounded=0;orthogonalLoop=1;jettySize=auto;html=1;exitX=0;exitY=0.5;exitDx=0;exitDy=0;entryX=1;entryY=0.5;entryDx=0;entryDy=0;labelBackgroundColor=default;strokeColor=default;align=center;verticalAlign=middle;fontFamily=Helvetica;fontSize=11;fontColor=default;endArrow=none;" edge="1" parent="1" source="OB0xpc5vKLzRvDVQ2PZP-6" target="OB0xpc5vKLzRvDVQ2PZP-21">
          <mxGeometry relative="1" as="geometry" />
        </mxCell>
        <mxCell id="OB0xpc5vKLzRvDVQ2PZP-6" value="Owner" style="rounded=1;arcSize=10;whiteSpace=wrap;html=1;align=center;" vertex="1" parent="1">
          <mxGeometry x="400" y="400" width="100" height="40" as="geometry" />
        </mxCell>
        <mxCell id="OB0xpc5vKLzRvDVQ2PZP-7" value="Person" style="rounded=1;arcSize=10;whiteSpace=wrap;html=1;align=center;" vertex="1" parent="1">
          <mxGeometry x="650" y="400" width="100" height="40" as="geometry" />
        </mxCell>
        <mxCell id="OB0xpc5vKLzRvDVQ2PZP-8" value="Rental Agreement" style="shape=rhombus;perimeter=rhombusPerimeter;whiteSpace=wrap;html=1;align=center;" vertex="1" parent="1">
          <mxGeometry y="430" width="120" height="60" as="geometry" />
        </mxCell>
        <mxCell id="OB0xpc5vKLzRvDVQ2PZP-9" value="" style="endArrow=none;html=1;rounded=0;exitX=0.5;exitY=1;exitDx=0;exitDy=0;fontStyle=1;entryX=0.5;entryY=0;entryDx=0;entryDy=0;" edge="1" parent="1" source="OB0xpc5vKLzRvDVQ2PZP-1" target="OB0xpc5vKLzRvDVQ2PZP-8">
          <mxGeometry relative="1" as="geometry">
            <mxPoint x="50" y="439" as="sourcePoint" />
            <mxPoint x="210" y="439" as="targetPoint" />
          </mxGeometry>
        </mxCell>
        <mxCell id="OB0xpc5vKLzRvDVQ2PZP-13" value="" style="endArrow=none;html=1;rounded=0;entryX=0.5;entryY=0;entryDx=0;entryDy=0;exitX=0.5;exitY=1;exitDx=0;exitDy=0;" edge="1" parent="1" source="OB0xpc5vKLzRvDVQ2PZP-8" target="OB0xpc5vKLzRvDVQ2PZP-5">
          <mxGeometry relative="1" as="geometry">
            <mxPoint x="280" y="470" as="sourcePoint" />
            <mxPoint x="440" y="470" as="targetPoint" />
          </mxGeometry>
        </mxCell>
        <mxCell id="OB0xpc5vKLzRvDVQ2PZP-28" style="edgeStyle=none;shape=connector;rounded=0;orthogonalLoop=1;jettySize=auto;html=1;exitX=0.5;exitY=1;exitDx=0;exitDy=0;entryX=0.75;entryY=0;entryDx=0;entryDy=0;labelBackgroundColor=default;strokeColor=default;align=center;verticalAlign=middle;fontFamily=Helvetica;fontSize=11;fontColor=default;endArrow=none;" edge="1" parent="1" source="OB0xpc5vKLzRvDVQ2PZP-15" target="OB0xpc5vKLzRvDVQ2PZP-5">
          <mxGeometry relative="1" as="geometry" />
        </mxCell>
        <mxCell id="OB0xpc5vKLzRvDVQ2PZP-15" value="Has" style="shape=rhombus;perimeter=rhombusPerimeter;whiteSpace=wrap;html=1;align=center;" vertex="1" parent="1">
          <mxGeometry x="210" y="490" width="120" height="60" as="geometry" />
        </mxCell>
        <mxCell id="OB0xpc5vKLzRvDVQ2PZP-29" style="edgeStyle=none;shape=connector;rounded=0;orthogonalLoop=1;jettySize=auto;html=1;exitX=0;exitY=0.5;exitDx=0;exitDy=0;entryX=1;entryY=1;entryDx=0;entryDy=0;labelBackgroundColor=default;strokeColor=default;align=center;verticalAlign=middle;fontFamily=Helvetica;fontSize=11;fontColor=default;endArrow=none;" edge="1" parent="1" source="OB0xpc5vKLzRvDVQ2PZP-21" target="OB0xpc5vKLzRvDVQ2PZP-1">
          <mxGeometry relative="1" as="geometry" />
        </mxCell>
        <mxCell id="OB0xpc5vKLzRvDVQ2PZP-21" value="Has" style="shape=rhombus;perimeter=rhombusPerimeter;whiteSpace=wrap;html=1;align=center;" vertex="1" parent="1">
          <mxGeometry x="210" y="360" width="120" height="60" as="geometry" />
        </mxCell>
        <mxCell id="OB0xpc5vKLzRvDVQ2PZP-30" style="edgeStyle=none;shape=connector;rounded=0;orthogonalLoop=1;jettySize=auto;html=1;exitX=0;exitY=0.5;exitDx=0;exitDy=0;entryX=1;entryY=0.5;entryDx=0;entryDy=0;labelBackgroundColor=default;strokeColor=default;align=center;verticalAlign=middle;fontFamily=Helvetica;fontSize=11;fontColor=default;endArrow=none;" edge="1" parent="1" source="OB0xpc5vKLzRvDVQ2PZP-22" target="OB0xpc5vKLzRvDVQ2PZP-1">
          <mxGeometry relative="1" as="geometry" />
        </mxCell>
        <mxCell id="OB0xpc5vKLzRvDVQ2PZP-22" value="May Have" style="shape=rhombus;perimeter=rhombusPerimeter;whiteSpace=wrap;html=1;align=center;" vertex="1" parent="1">
          <mxGeometry x="270" y="288" width="120" height="60" as="geometry" />
        </mxCell>
        <mxCell id="OB0xpc5vKLzRvDVQ2PZP-23" value="" style="endArrow=none;html=1;rounded=0;entryX=0;entryY=0.5;entryDx=0;entryDy=0;exitX=1;exitY=0.5;exitDx=0;exitDy=0;" edge="1" parent="1" source="OB0xpc5vKLzRvDVQ2PZP-22" target="OB0xpc5vKLzRvDVQ2PZP-3">
          <mxGeometry relative="1" as="geometry">
            <mxPoint x="370" y="298" as="sourcePoint" />
            <mxPoint x="530" y="298" as="targetPoint" />
          </mxGeometry>
        </mxCell>
        <mxCell id="OB0xpc5vKLzRvDVQ2PZP-105" style="edgeStyle=none;shape=connector;rounded=0;orthogonalLoop=1;jettySize=auto;html=1;exitX=0;exitY=1;exitDx=0;exitDy=0;labelBackgroundColor=default;strokeColor=default;align=center;verticalAlign=middle;fontFamily=Helvetica;fontSize=11;fontColor=default;endArrow=none;" edge="1" parent="1" source="OB0xpc5vKLzRvDVQ2PZP-35">
          <mxGeometry relative="1" as="geometry">
            <mxPoint x="40" y="120" as="targetPoint" />
          </mxGeometry>
        </mxCell>
        <mxCell id="OB0xpc5vKLzRvDVQ2PZP-122" style="edgeStyle=none;shape=connector;rounded=0;orthogonalLoop=1;jettySize=auto;html=1;exitX=0.75;exitY=0;exitDx=0;exitDy=0;entryX=0.5;entryY=1;entryDx=0;entryDy=0;labelBackgroundColor=default;strokeColor=default;align=center;verticalAlign=middle;fontFamily=Helvetica;fontSize=11;fontColor=default;endArrow=none;" edge="1" parent="1" source="OB0xpc5vKLzRvDVQ2PZP-35" target="OB0xpc5vKLzRvDVQ2PZP-114">
          <mxGeometry relative="1" as="geometry" />
        </mxCell>
        <mxCell id="OB0xpc5vKLzRvDVQ2PZP-123" style="edgeStyle=none;shape=connector;rounded=0;orthogonalLoop=1;jettySize=auto;html=1;exitX=1;exitY=0.5;exitDx=0;exitDy=0;entryX=0;entryY=1;entryDx=0;entryDy=0;labelBackgroundColor=default;strokeColor=default;align=center;verticalAlign=middle;fontFamily=Helvetica;fontSize=11;fontColor=default;endArrow=none;" edge="1" parent="1" source="OB0xpc5vKLzRvDVQ2PZP-35" target="OB0xpc5vKLzRvDVQ2PZP-115">
          <mxGeometry relative="1" as="geometry" />
        </mxCell>
        <mxCell id="OB0xpc5vKLzRvDVQ2PZP-35" value="House" style="rounded=1;arcSize=10;whiteSpace=wrap;html=1;align=center;" vertex="1" parent="1">
          <mxGeometry x="170" y="-10" width="100" height="40" as="geometry" />
        </mxCell>
        <mxCell id="OB0xpc5vKLzRvDVQ2PZP-119" style="edgeStyle=none;shape=connector;rounded=0;orthogonalLoop=1;jettySize=auto;html=1;exitX=0;exitY=0;exitDx=0;exitDy=0;entryX=0.5;entryY=1;entryDx=0;entryDy=0;labelBackgroundColor=default;strokeColor=default;align=center;verticalAlign=middle;fontFamily=Helvetica;fontSize=11;fontColor=default;endArrow=none;" edge="1" parent="1" source="OB0xpc5vKLzRvDVQ2PZP-36" target="OB0xpc5vKLzRvDVQ2PZP-111">
          <mxGeometry relative="1" as="geometry" />
        </mxCell>
        <mxCell id="OB0xpc5vKLzRvDVQ2PZP-120" style="edgeStyle=none;shape=connector;rounded=0;orthogonalLoop=1;jettySize=auto;html=1;exitX=0.5;exitY=0;exitDx=0;exitDy=0;entryX=0.5;entryY=1;entryDx=0;entryDy=0;labelBackgroundColor=default;strokeColor=default;align=center;verticalAlign=middle;fontFamily=Helvetica;fontSize=11;fontColor=default;endArrow=none;" edge="1" parent="1" source="OB0xpc5vKLzRvDVQ2PZP-36" target="OB0xpc5vKLzRvDVQ2PZP-112">
          <mxGeometry relative="1" as="geometry" />
        </mxCell>
        <mxCell id="OB0xpc5vKLzRvDVQ2PZP-121" style="edgeStyle=none;shape=connector;rounded=0;orthogonalLoop=1;jettySize=auto;html=1;exitX=1;exitY=0;exitDx=0;exitDy=0;entryX=0.5;entryY=1;entryDx=0;entryDy=0;labelBackgroundColor=default;strokeColor=default;align=center;verticalAlign=middle;fontFamily=Helvetica;fontSize=11;fontColor=default;endArrow=none;" edge="1" parent="1" source="OB0xpc5vKLzRvDVQ2PZP-36" target="OB0xpc5vKLzRvDVQ2PZP-174">
          <mxGeometry relative="1" as="geometry">
            <mxPoint x="120" y="-60" as="targetPoint" />
          </mxGeometry>
        </mxCell>
        <mxCell id="OB0xpc5vKLzRvDVQ2PZP-36" value="Room" style="rounded=1;arcSize=10;whiteSpace=wrap;html=1;align=center;" vertex="1" parent="1">
          <mxGeometry x="-10" y="-10" width="100" height="40" as="geometry" />
        </mxCell>
        <mxCell id="OB0xpc5vKLzRvDVQ2PZP-107" style="edgeStyle=none;shape=connector;rounded=0;orthogonalLoop=1;jettySize=auto;html=1;exitX=1;exitY=1;exitDx=0;exitDy=0;labelBackgroundColor=default;strokeColor=default;align=center;verticalAlign=middle;fontFamily=Helvetica;fontSize=11;fontColor=default;endArrow=none;" edge="1" parent="1" source="OB0xpc5vKLzRvDVQ2PZP-37">
          <mxGeometry relative="1" as="geometry">
            <mxPoint x="40" y="120" as="targetPoint" />
          </mxGeometry>
        </mxCell>
        <mxCell id="OB0xpc5vKLzRvDVQ2PZP-116" style="edgeStyle=none;shape=connector;rounded=0;orthogonalLoop=1;jettySize=auto;html=1;exitX=0;exitY=0.5;exitDx=0;exitDy=0;entryX=1;entryY=0.5;entryDx=0;entryDy=0;labelBackgroundColor=default;strokeColor=default;align=center;verticalAlign=middle;fontFamily=Helvetica;fontSize=11;fontColor=default;endArrow=none;" edge="1" parent="1" source="OB0xpc5vKLzRvDVQ2PZP-37" target="OB0xpc5vKLzRvDVQ2PZP-108">
          <mxGeometry relative="1" as="geometry" />
        </mxCell>
        <mxCell id="OB0xpc5vKLzRvDVQ2PZP-117" style="edgeStyle=none;shape=connector;rounded=0;orthogonalLoop=1;jettySize=auto;html=1;exitX=0;exitY=0;exitDx=0;exitDy=0;entryX=1;entryY=1;entryDx=0;entryDy=0;labelBackgroundColor=default;strokeColor=default;align=center;verticalAlign=middle;fontFamily=Helvetica;fontSize=11;fontColor=default;endArrow=none;" edge="1" parent="1" source="OB0xpc5vKLzRvDVQ2PZP-37" target="OB0xpc5vKLzRvDVQ2PZP-109">
          <mxGeometry relative="1" as="geometry" />
        </mxCell>
        <mxCell id="OB0xpc5vKLzRvDVQ2PZP-118" style="edgeStyle=none;shape=connector;rounded=0;orthogonalLoop=1;jettySize=auto;html=1;exitX=0.25;exitY=0;exitDx=0;exitDy=0;entryX=0.5;entryY=1;entryDx=0;entryDy=0;labelBackgroundColor=default;strokeColor=default;align=center;verticalAlign=middle;fontFamily=Helvetica;fontSize=11;fontColor=default;endArrow=none;" edge="1" parent="1" source="OB0xpc5vKLzRvDVQ2PZP-37" target="OB0xpc5vKLzRvDVQ2PZP-110">
          <mxGeometry relative="1" as="geometry" />
        </mxCell>
        <mxCell id="OB0xpc5vKLzRvDVQ2PZP-37" value="Apartment" style="rounded=1;arcSize=10;whiteSpace=wrap;html=1;align=center;" vertex="1" parent="1">
          <mxGeometry x="-190" y="-10" width="100" height="40" as="geometry" />
        </mxCell>
        <mxCell id="OB0xpc5vKLzRvDVQ2PZP-45" value="" style="endArrow=classic;html=1;rounded=0;labelBackgroundColor=default;strokeColor=default;align=center;verticalAlign=middle;fontFamily=Helvetica;fontSize=11;fontColor=default;shape=connector;entryX=0;entryY=0.5;entryDx=0;entryDy=0;exitX=1;exitY=0.5;exitDx=0;exitDy=0;" edge="1" parent="1" source="OB0xpc5vKLzRvDVQ2PZP-6" target="OB0xpc5vKLzRvDVQ2PZP-7">
          <mxGeometry width="50" height="50" relative="1" as="geometry">
            <mxPoint x="580" y="520" as="sourcePoint" />
            <mxPoint x="630" y="470" as="targetPoint" />
          </mxGeometry>
        </mxCell>
        <mxCell id="OB0xpc5vKLzRvDVQ2PZP-47" style="edgeStyle=none;shape=connector;rounded=0;orthogonalLoop=1;jettySize=auto;html=1;exitX=1;exitY=0.5;exitDx=0;exitDy=0;entryX=0;entryY=0.5;entryDx=0;entryDy=0;labelBackgroundColor=default;strokeColor=default;align=center;verticalAlign=middle;fontFamily=Helvetica;fontSize=11;fontColor=default;endArrow=none;" edge="1" parent="1" source="OB0xpc5vKLzRvDVQ2PZP-46" target="OB0xpc5vKLzRvDVQ2PZP-5">
          <mxGeometry relative="1" as="geometry" />
        </mxCell>
        <mxCell id="OB0xpc5vKLzRvDVQ2PZP-46" value="Code Group" style="ellipse;whiteSpace=wrap;html=1;align=center;fontStyle=4;fontFamily=Helvetica;fontSize=11;fontColor=default;" vertex="1" parent="1">
          <mxGeometry x="-30" y="620" width="100" height="40" as="geometry" />
        </mxCell>
        <mxCell id="OB0xpc5vKLzRvDVQ2PZP-54" style="edgeStyle=none;shape=connector;rounded=0;orthogonalLoop=1;jettySize=auto;html=1;exitX=1;exitY=0.5;exitDx=0;exitDy=0;entryX=0;entryY=0.75;entryDx=0;entryDy=0;labelBackgroundColor=default;strokeColor=default;align=center;verticalAlign=middle;fontFamily=Helvetica;fontSize=11;fontColor=default;endArrow=none;" edge="1" parent="1" source="OB0xpc5vKLzRvDVQ2PZP-48" target="OB0xpc5vKLzRvDVQ2PZP-5">
          <mxGeometry relative="1" as="geometry" />
        </mxCell>
        <mxCell id="OB0xpc5vKLzRvDVQ2PZP-48" value="Desires Parking" style="ellipse;whiteSpace=wrap;html=1;align=center;fontFamily=Helvetica;fontSize=11;fontColor=default;" vertex="1" parent="1">
          <mxGeometry x="-90" y="670" width="100" height="40" as="geometry" />
        </mxCell>
        <mxCell id="OB0xpc5vKLzRvDVQ2PZP-50" value="Desires Laundry" style="ellipse;whiteSpace=wrap;html=1;align=center;fontFamily=Helvetica;fontSize=11;fontColor=default;" vertex="1" parent="1">
          <mxGeometry x="-90" y="720" width="100" height="40" as="geometry" />
        </mxCell>
        <mxCell id="OB0xpc5vKLzRvDVQ2PZP-56" style="edgeStyle=none;shape=connector;rounded=0;orthogonalLoop=1;jettySize=auto;html=1;exitX=0.5;exitY=0;exitDx=0;exitDy=0;entryX=0.25;entryY=1;entryDx=0;entryDy=0;labelBackgroundColor=default;strokeColor=default;align=center;verticalAlign=middle;fontFamily=Helvetica;fontSize=11;fontColor=default;endArrow=none;" edge="1" parent="1" source="OB0xpc5vKLzRvDVQ2PZP-51" target="OB0xpc5vKLzRvDVQ2PZP-5">
          <mxGeometry relative="1" as="geometry" />
        </mxCell>
        <mxCell id="OB0xpc5vKLzRvDVQ2PZP-51" value="Desires Accessibility" style="ellipse;whiteSpace=wrap;html=1;align=center;fontFamily=Helvetica;fontSize=11;fontColor=default;" vertex="1" parent="1">
          <mxGeometry x="10" y="750" width="100" height="40" as="geometry" />
        </mxCell>
        <mxCell id="OB0xpc5vKLzRvDVQ2PZP-57" style="edgeStyle=none;shape=connector;rounded=0;orthogonalLoop=1;jettySize=auto;html=1;exitX=0.5;exitY=0;exitDx=0;exitDy=0;entryX=0.5;entryY=1;entryDx=0;entryDy=0;labelBackgroundColor=default;strokeColor=default;align=center;verticalAlign=middle;fontFamily=Helvetica;fontSize=11;fontColor=default;endArrow=none;" edge="1" parent="1" source="OB0xpc5vKLzRvDVQ2PZP-52" target="OB0xpc5vKLzRvDVQ2PZP-5">
          <mxGeometry relative="1" as="geometry" />
        </mxCell>
        <mxCell id="OB0xpc5vKLzRvDVQ2PZP-52" value="Desired # Bathrooms" style="ellipse;whiteSpace=wrap;html=1;align=center;fontFamily=Helvetica;fontSize=11;fontColor=default;" vertex="1" parent="1">
          <mxGeometry x="120" y="750" width="100" height="40" as="geometry" />
        </mxCell>
        <mxCell id="OB0xpc5vKLzRvDVQ2PZP-58" style="edgeStyle=none;shape=connector;rounded=0;orthogonalLoop=1;jettySize=auto;html=1;exitX=0;exitY=0;exitDx=0;exitDy=0;entryX=0.75;entryY=1;entryDx=0;entryDy=0;labelBackgroundColor=default;strokeColor=default;align=center;verticalAlign=middle;fontFamily=Helvetica;fontSize=11;fontColor=default;endArrow=none;" edge="1" parent="1" source="OB0xpc5vKLzRvDVQ2PZP-53" target="OB0xpc5vKLzRvDVQ2PZP-5">
          <mxGeometry relative="1" as="geometry" />
        </mxCell>
        <mxCell id="OB0xpc5vKLzRvDVQ2PZP-53" value="Desired # Bedrooms" style="ellipse;whiteSpace=wrap;html=1;align=center;fontFamily=Helvetica;fontSize=11;fontColor=default;" vertex="1" parent="1">
          <mxGeometry x="230" y="740" width="100" height="40" as="geometry" />
        </mxCell>
        <mxCell id="OB0xpc5vKLzRvDVQ2PZP-55" style="edgeStyle=none;shape=connector;rounded=0;orthogonalLoop=1;jettySize=auto;html=1;exitX=1;exitY=0;exitDx=0;exitDy=0;entryX=0;entryY=1;entryDx=0;entryDy=0;labelBackgroundColor=default;strokeColor=default;align=center;verticalAlign=middle;fontFamily=Helvetica;fontSize=11;fontColor=default;endArrow=none;" edge="1" parent="1" source="OB0xpc5vKLzRvDVQ2PZP-50" target="OB0xpc5vKLzRvDVQ2PZP-5">
          <mxGeometry relative="1" as="geometry" />
        </mxCell>
        <mxCell id="OB0xpc5vKLzRvDVQ2PZP-61" style="edgeStyle=none;shape=connector;rounded=0;orthogonalLoop=1;jettySize=auto;html=1;exitX=0.5;exitY=1;exitDx=0;exitDy=0;entryX=0.25;entryY=0;entryDx=0;entryDy=0;labelBackgroundColor=default;strokeColor=default;align=center;verticalAlign=middle;fontFamily=Helvetica;fontSize=11;fontColor=default;endArrow=none;" edge="1" parent="1" source="OB0xpc5vKLzRvDVQ2PZP-60" target="OB0xpc5vKLzRvDVQ2PZP-7">
          <mxGeometry relative="1" as="geometry" />
        </mxCell>
        <mxCell id="OB0xpc5vKLzRvDVQ2PZP-60" value="ID" style="ellipse;whiteSpace=wrap;html=1;align=center;fontStyle=4;fontFamily=Helvetica;fontSize=11;fontColor=default;" vertex="1" parent="1">
          <mxGeometry x="620" y="298" width="100" height="40" as="geometry" />
        </mxCell>
        <mxCell id="OB0xpc5vKLzRvDVQ2PZP-64" style="edgeStyle=none;shape=connector;rounded=0;orthogonalLoop=1;jettySize=auto;html=1;exitX=0;exitY=1;exitDx=0;exitDy=0;entryX=0.5;entryY=0;entryDx=0;entryDy=0;labelBackgroundColor=default;strokeColor=default;align=center;verticalAlign=middle;fontFamily=Helvetica;fontSize=11;fontColor=default;endArrow=none;" edge="1" parent="1" source="OB0xpc5vKLzRvDVQ2PZP-63" target="OB0xpc5vKLzRvDVQ2PZP-7">
          <mxGeometry relative="1" as="geometry" />
        </mxCell>
        <mxCell id="OB0xpc5vKLzRvDVQ2PZP-63" value="Name" style="ellipse;whiteSpace=wrap;html=1;align=center;fontFamily=Helvetica;fontSize=11;fontColor=default;" vertex="1" parent="1">
          <mxGeometry x="730" y="328" width="100" height="40" as="geometry" />
        </mxCell>
        <mxCell id="OB0xpc5vKLzRvDVQ2PZP-68" style="edgeStyle=none;shape=connector;rounded=0;orthogonalLoop=1;jettySize=auto;html=1;exitX=0.5;exitY=1;exitDx=0;exitDy=0;entryX=0.5;entryY=0;entryDx=0;entryDy=0;labelBackgroundColor=default;strokeColor=default;align=center;verticalAlign=middle;fontFamily=Helvetica;fontSize=11;fontColor=default;endArrow=none;" edge="1" parent="1" source="OB0xpc5vKLzRvDVQ2PZP-65" target="OB0xpc5vKLzRvDVQ2PZP-63">
          <mxGeometry relative="1" as="geometry" />
        </mxCell>
        <mxCell id="OB0xpc5vKLzRvDVQ2PZP-65" value="First Name" style="ellipse;whiteSpace=wrap;html=1;align=center;fontFamily=Helvetica;fontSize=11;fontColor=default;" vertex="1" parent="1">
          <mxGeometry x="730" y="270" width="100" height="40" as="geometry" />
        </mxCell>
        <mxCell id="OB0xpc5vKLzRvDVQ2PZP-67" style="edgeStyle=none;shape=connector;rounded=0;orthogonalLoop=1;jettySize=auto;html=1;exitX=0;exitY=0.5;exitDx=0;exitDy=0;entryX=1;entryY=0;entryDx=0;entryDy=0;labelBackgroundColor=default;strokeColor=default;align=center;verticalAlign=middle;fontFamily=Helvetica;fontSize=11;fontColor=default;endArrow=none;" edge="1" parent="1" source="OB0xpc5vKLzRvDVQ2PZP-66" target="OB0xpc5vKLzRvDVQ2PZP-63">
          <mxGeometry relative="1" as="geometry" />
        </mxCell>
        <mxCell id="OB0xpc5vKLzRvDVQ2PZP-66" value="Last Name" style="ellipse;whiteSpace=wrap;html=1;align=center;fontFamily=Helvetica;fontSize=11;fontColor=default;" vertex="1" parent="1">
          <mxGeometry x="840" y="308" width="100" height="40" as="geometry" />
        </mxCell>
        <mxCell id="OB0xpc5vKLzRvDVQ2PZP-78" style="edgeStyle=none;shape=connector;rounded=0;orthogonalLoop=1;jettySize=auto;html=1;exitX=0.5;exitY=0;exitDx=0;exitDy=0;entryX=0.5;entryY=1;entryDx=0;entryDy=0;labelBackgroundColor=default;strokeColor=default;align=center;verticalAlign=middle;fontFamily=Helvetica;fontSize=11;fontColor=default;endArrow=none;" edge="1" parent="1" source="OB0xpc5vKLzRvDVQ2PZP-69" target="OB0xpc5vKLzRvDVQ2PZP-7">
          <mxGeometry relative="1" as="geometry" />
        </mxCell>
        <mxCell id="OB0xpc5vKLzRvDVQ2PZP-69" value="Phone Number" style="ellipse;whiteSpace=wrap;html=1;align=center;fontFamily=Helvetica;fontSize=11;fontColor=default;" vertex="1" parent="1">
          <mxGeometry x="650" y="470" width="100" height="40" as="geometry" />
        </mxCell>
        <mxCell id="OB0xpc5vKLzRvDVQ2PZP-79" style="edgeStyle=none;shape=connector;rounded=0;orthogonalLoop=1;jettySize=auto;html=1;exitX=0;exitY=0;exitDx=0;exitDy=0;entryX=1;entryY=1;entryDx=0;entryDy=0;labelBackgroundColor=default;strokeColor=default;align=center;verticalAlign=middle;fontFamily=Helvetica;fontSize=11;fontColor=default;endArrow=none;" edge="1" parent="1" source="OB0xpc5vKLzRvDVQ2PZP-70" target="OB0xpc5vKLzRvDVQ2PZP-69">
          <mxGeometry relative="1" as="geometry" />
        </mxCell>
        <mxCell id="OB0xpc5vKLzRvDVQ2PZP-70" value="Area Code" style="ellipse;whiteSpace=wrap;html=1;align=center;fontFamily=Helvetica;fontSize=11;fontColor=default;" vertex="1" parent="1">
          <mxGeometry x="720" y="520" width="100" height="40" as="geometry" />
        </mxCell>
        <mxCell id="OB0xpc5vKLzRvDVQ2PZP-80" style="edgeStyle=none;shape=connector;rounded=0;orthogonalLoop=1;jettySize=auto;html=1;exitX=0.5;exitY=0;exitDx=0;exitDy=0;entryX=0;entryY=1;entryDx=0;entryDy=0;labelBackgroundColor=default;strokeColor=default;align=center;verticalAlign=middle;fontFamily=Helvetica;fontSize=11;fontColor=default;endArrow=none;" edge="1" parent="1" source="OB0xpc5vKLzRvDVQ2PZP-71" target="OB0xpc5vKLzRvDVQ2PZP-69">
          <mxGeometry relative="1" as="geometry" />
        </mxCell>
        <mxCell id="OB0xpc5vKLzRvDVQ2PZP-71" value="User Number" style="ellipse;whiteSpace=wrap;html=1;align=center;fontFamily=Helvetica;fontSize=11;fontColor=default;" vertex="1" parent="1">
          <mxGeometry x="590" y="520" width="100" height="40" as="geometry" />
        </mxCell>
        <mxCell id="OB0xpc5vKLzRvDVQ2PZP-83" style="edgeStyle=none;shape=connector;rounded=0;orthogonalLoop=1;jettySize=auto;html=1;exitX=0;exitY=0.5;exitDx=0;exitDy=0;entryX=1;entryY=1;entryDx=0;entryDy=0;labelBackgroundColor=default;strokeColor=default;align=center;verticalAlign=middle;fontFamily=Helvetica;fontSize=11;fontColor=default;endArrow=none;" edge="1" parent="1" source="OB0xpc5vKLzRvDVQ2PZP-81" target="OB0xpc5vKLzRvDVQ2PZP-5">
          <mxGeometry relative="1" as="geometry" />
        </mxCell>
        <mxCell id="OB0xpc5vKLzRvDVQ2PZP-81" value="Desired Property Type" style="ellipse;whiteSpace=wrap;html=1;align=center;fontFamily=Helvetica;fontSize=11;fontColor=default;" vertex="1" parent="1">
          <mxGeometry x="270" y="690" width="100" height="40" as="geometry" />
        </mxCell>
        <mxCell id="OB0xpc5vKLzRvDVQ2PZP-84" style="edgeStyle=none;shape=connector;rounded=0;orthogonalLoop=1;jettySize=auto;html=1;exitX=0;exitY=0.5;exitDx=0;exitDy=0;entryX=1;entryY=0.5;entryDx=0;entryDy=0;labelBackgroundColor=default;strokeColor=default;align=center;verticalAlign=middle;fontFamily=Helvetica;fontSize=11;fontColor=default;endArrow=none;" edge="1" parent="1" source="OB0xpc5vKLzRvDVQ2PZP-82" target="OB0xpc5vKLzRvDVQ2PZP-5">
          <mxGeometry relative="1" as="geometry" />
        </mxCell>
        <mxCell id="OB0xpc5vKLzRvDVQ2PZP-82" value="Max Willing Rent" style="ellipse;whiteSpace=wrap;html=1;align=center;fontFamily=Helvetica;fontSize=11;fontColor=default;" vertex="1" parent="1">
          <mxGeometry x="250" y="640" width="100" height="40" as="geometry" />
        </mxCell>
        <mxCell id="OB0xpc5vKLzRvDVQ2PZP-90" style="edgeStyle=none;shape=connector;rounded=0;orthogonalLoop=1;jettySize=auto;html=1;exitX=1;exitY=0;exitDx=0;exitDy=0;entryX=0.25;entryY=1;entryDx=0;entryDy=0;labelBackgroundColor=default;strokeColor=default;align=center;verticalAlign=middle;fontFamily=Helvetica;fontSize=11;fontColor=default;endArrow=none;" edge="1" parent="1" source="OB0xpc5vKLzRvDVQ2PZP-85" target="OB0xpc5vKLzRvDVQ2PZP-1">
          <mxGeometry relative="1" as="geometry" />
        </mxCell>
        <mxCell id="OB0xpc5vKLzRvDVQ2PZP-85" value="Integer ID" style="ellipse;whiteSpace=wrap;html=1;align=center;fontStyle=4;fontFamily=Helvetica;fontSize=11;fontColor=default;" vertex="1" parent="1">
          <mxGeometry x="-100" y="280" width="100" height="40" as="geometry" />
        </mxCell>
        <mxCell id="OB0xpc5vKLzRvDVQ2PZP-91" style="edgeStyle=none;shape=connector;rounded=0;orthogonalLoop=1;jettySize=auto;html=1;exitX=1;exitY=0.5;exitDx=0;exitDy=0;entryX=0;entryY=1;entryDx=0;entryDy=0;labelBackgroundColor=default;strokeColor=default;align=center;verticalAlign=middle;fontFamily=Helvetica;fontSize=11;fontColor=default;endArrow=none;" edge="1" parent="1" source="OB0xpc5vKLzRvDVQ2PZP-87" target="OB0xpc5vKLzRvDVQ2PZP-1">
          <mxGeometry relative="1" as="geometry" />
        </mxCell>
        <mxCell id="OB0xpc5vKLzRvDVQ2PZP-87" value="Listing Date" style="ellipse;whiteSpace=wrap;html=1;align=center;fontFamily=Helvetica;fontSize=11;fontColor=default;" vertex="1" parent="1">
          <mxGeometry x="-200" y="260" width="100" height="40" as="geometry" />
        </mxCell>
        <mxCell id="OB0xpc5vKLzRvDVQ2PZP-93" style="edgeStyle=none;shape=connector;rounded=0;orthogonalLoop=1;jettySize=auto;html=1;exitX=1;exitY=0.5;exitDx=0;exitDy=0;entryX=0;entryY=0.5;entryDx=0;entryDy=0;labelBackgroundColor=default;strokeColor=default;align=center;verticalAlign=middle;fontFamily=Helvetica;fontSize=11;fontColor=default;endArrow=none;" edge="1" parent="1" source="OB0xpc5vKLzRvDVQ2PZP-88" target="OB0xpc5vKLzRvDVQ2PZP-1">
          <mxGeometry relative="1" as="geometry" />
        </mxCell>
        <mxCell id="OB0xpc5vKLzRvDVQ2PZP-88" value="# Bathrooms" style="ellipse;whiteSpace=wrap;html=1;align=center;fontFamily=Helvetica;fontSize=11;fontColor=default;" vertex="1" parent="1">
          <mxGeometry x="-300" y="180" width="100" height="40" as="geometry" />
        </mxCell>
        <mxCell id="OB0xpc5vKLzRvDVQ2PZP-92" style="edgeStyle=none;shape=connector;rounded=0;orthogonalLoop=1;jettySize=auto;html=1;exitX=1;exitY=0.5;exitDx=0;exitDy=0;entryX=0;entryY=0.75;entryDx=0;entryDy=0;labelBackgroundColor=default;strokeColor=default;align=center;verticalAlign=middle;fontFamily=Helvetica;fontSize=11;fontColor=default;endArrow=none;" edge="1" parent="1" source="OB0xpc5vKLzRvDVQ2PZP-89" target="OB0xpc5vKLzRvDVQ2PZP-1">
          <mxGeometry relative="1" as="geometry" />
        </mxCell>
        <mxCell id="OB0xpc5vKLzRvDVQ2PZP-89" value="Monthly Cost" style="ellipse;whiteSpace=wrap;html=1;align=center;fontFamily=Helvetica;fontSize=11;fontColor=default;" vertex="1" parent="1">
          <mxGeometry x="-290" y="230" width="100" height="40" as="geometry" />
        </mxCell>
        <mxCell id="OB0xpc5vKLzRvDVQ2PZP-95" style="edgeStyle=none;shape=connector;rounded=0;orthogonalLoop=1;jettySize=auto;html=1;exitX=1;exitY=1;exitDx=0;exitDy=0;entryX=0;entryY=0.25;entryDx=0;entryDy=0;labelBackgroundColor=default;strokeColor=default;align=center;verticalAlign=middle;fontFamily=Helvetica;fontSize=11;fontColor=default;endArrow=none;" edge="1" parent="1" source="OB0xpc5vKLzRvDVQ2PZP-94" target="OB0xpc5vKLzRvDVQ2PZP-1">
          <mxGeometry relative="1" as="geometry" />
        </mxCell>
        <mxCell id="OB0xpc5vKLzRvDVQ2PZP-94" value="# Bedrooms" style="ellipse;whiteSpace=wrap;html=1;align=center;fontFamily=Helvetica;fontSize=11;fontColor=default;" vertex="1" parent="1">
          <mxGeometry x="-250" y="130" width="100" height="40" as="geometry" />
        </mxCell>
        <mxCell id="OB0xpc5vKLzRvDVQ2PZP-96" value="Parking" style="ellipse;whiteSpace=wrap;html=1;align=center;fontFamily=Helvetica;fontSize=11;fontColor=default;" vertex="1" parent="1">
          <mxGeometry x="-140" y="120" width="100" height="40" as="geometry" />
        </mxCell>
        <mxCell id="OB0xpc5vKLzRvDVQ2PZP-102" style="edgeStyle=none;shape=connector;rounded=0;orthogonalLoop=1;jettySize=auto;html=1;exitX=0;exitY=0.5;exitDx=0;exitDy=0;entryX=0.75;entryY=0;entryDx=0;entryDy=0;labelBackgroundColor=default;strokeColor=default;align=center;verticalAlign=middle;fontFamily=Helvetica;fontSize=11;fontColor=default;endArrow=none;" edge="1" parent="1" source="OB0xpc5vKLzRvDVQ2PZP-97" target="OB0xpc5vKLzRvDVQ2PZP-1">
          <mxGeometry relative="1" as="geometry" />
        </mxCell>
        <mxCell id="OB0xpc5vKLzRvDVQ2PZP-97" value="Laundry Situation" style="ellipse;whiteSpace=wrap;html=1;align=center;fontFamily=Helvetica;fontSize=11;fontColor=default;" vertex="1" parent="1">
          <mxGeometry x="110" y="120" width="100" height="40" as="geometry" />
        </mxCell>
        <mxCell id="OB0xpc5vKLzRvDVQ2PZP-101" style="edgeStyle=none;shape=connector;rounded=0;orthogonalLoop=1;jettySize=auto;html=1;exitX=0;exitY=0.5;exitDx=0;exitDy=0;entryX=1;entryY=0;entryDx=0;entryDy=0;labelBackgroundColor=default;strokeColor=default;align=center;verticalAlign=middle;fontFamily=Helvetica;fontSize=11;fontColor=default;endArrow=none;" edge="1" parent="1" source="OB0xpc5vKLzRvDVQ2PZP-98" target="OB0xpc5vKLzRvDVQ2PZP-1">
          <mxGeometry relative="1" as="geometry" />
        </mxCell>
        <mxCell id="OB0xpc5vKLzRvDVQ2PZP-98" value="Address" style="ellipse;whiteSpace=wrap;html=1;align=center;fontFamily=Helvetica;fontSize=11;fontColor=default;" vertex="1" parent="1">
          <mxGeometry x="250" y="150" width="100" height="40" as="geometry" />
        </mxCell>
        <mxCell id="OB0xpc5vKLzRvDVQ2PZP-100" style="edgeStyle=none;shape=connector;rounded=0;orthogonalLoop=1;jettySize=auto;html=1;exitX=0;exitY=0.5;exitDx=0;exitDy=0;entryX=1;entryY=0.25;entryDx=0;entryDy=0;labelBackgroundColor=default;strokeColor=default;align=center;verticalAlign=middle;fontFamily=Helvetica;fontSize=11;fontColor=default;endArrow=none;" edge="1" parent="1" source="OB0xpc5vKLzRvDVQ2PZP-99" target="OB0xpc5vKLzRvDVQ2PZP-1">
          <mxGeometry relative="1" as="geometry" />
        </mxCell>
        <mxCell id="OB0xpc5vKLzRvDVQ2PZP-99" value="Accessability" style="ellipse;whiteSpace=wrap;html=1;align=center;fontFamily=Helvetica;fontSize=11;fontColor=default;" vertex="1" parent="1">
          <mxGeometry x="155" y="200" width="100" height="40" as="geometry" />
        </mxCell>
        <mxCell id="OB0xpc5vKLzRvDVQ2PZP-104" value="" style="endArrow=classic;html=1;rounded=0;labelBackgroundColor=default;strokeColor=default;align=center;verticalAlign=middle;fontFamily=Helvetica;fontSize=11;fontColor=default;shape=connector;entryX=0.5;entryY=0;entryDx=0;entryDy=0;exitX=0.5;exitY=1;exitDx=0;exitDy=0;" edge="1" parent="1" source="OB0xpc5vKLzRvDVQ2PZP-36" target="OB0xpc5vKLzRvDVQ2PZP-1">
          <mxGeometry width="50" height="50" relative="1" as="geometry">
            <mxPoint x="80" y="170" as="sourcePoint" />
            <mxPoint x="200" y="170" as="targetPoint" />
          </mxGeometry>
        </mxCell>
        <mxCell id="OB0xpc5vKLzRvDVQ2PZP-108" value="Elevator" style="ellipse;whiteSpace=wrap;html=1;align=center;fontFamily=Helvetica;fontSize=11;fontColor=default;" vertex="1" parent="1">
          <mxGeometry x="-350" y="-10" width="100" height="40" as="geometry" />
        </mxCell>
        <mxCell id="OB0xpc5vKLzRvDVQ2PZP-109" value="Apartment Number" style="ellipse;whiteSpace=wrap;html=1;align=center;fontFamily=Helvetica;fontSize=11;fontColor=default;" vertex="1" parent="1">
          <mxGeometry x="-350" y="-60" width="100" height="40" as="geometry" />
        </mxCell>
        <mxCell id="OB0xpc5vKLzRvDVQ2PZP-110" value="Floor Number" style="ellipse;whiteSpace=wrap;html=1;align=center;fontFamily=Helvetica;fontSize=11;fontColor=default;" vertex="1" parent="1">
          <mxGeometry x="-240" y="-90" width="100" height="40" as="geometry" />
        </mxCell>
        <mxCell id="OB0xpc5vKLzRvDVQ2PZP-111" value="# Housemates" style="ellipse;whiteSpace=wrap;html=1;align=center;fontFamily=Helvetica;fontSize=11;fontColor=default;" vertex="1" parent="1">
          <mxGeometry x="-90" y="-100" width="100" height="40" as="geometry" />
        </mxCell>
        <mxCell id="OB0xpc5vKLzRvDVQ2PZP-112" value="Kitchen Privileges" style="ellipse;whiteSpace=wrap;html=1;align=center;fontFamily=Helvetica;fontSize=11;fontColor=default;" vertex="1" parent="1">
          <mxGeometry x="-10" y="-150" width="100" height="40" as="geometry" />
        </mxCell>
        <mxCell id="OB0xpc5vKLzRvDVQ2PZP-114" value="Fenced Yard" style="ellipse;whiteSpace=wrap;html=1;align=center;fontFamily=Helvetica;fontSize=11;fontColor=default;" vertex="1" parent="1">
          <mxGeometry x="230" y="-80" width="100" height="40" as="geometry" />
        </mxCell>
        <mxCell id="OB0xpc5vKLzRvDVQ2PZP-115" value="Detached/Semi-Attached" style="ellipse;whiteSpace=wrap;html=1;align=center;fontFamily=Helvetica;fontSize=11;fontColor=default;" vertex="1" parent="1">
          <mxGeometry x="300" y="-30" width="100" height="40" as="geometry" />
        </mxCell>
        <mxCell id="OB0xpc5vKLzRvDVQ2PZP-131" style="edgeStyle=none;shape=connector;rounded=0;orthogonalLoop=1;jettySize=auto;html=1;exitX=0;exitY=0.5;exitDx=0;exitDy=0;entryX=0.5;entryY=0;entryDx=0;entryDy=0;labelBackgroundColor=default;strokeColor=default;align=center;verticalAlign=middle;fontFamily=Helvetica;fontSize=11;fontColor=default;endArrow=none;" edge="1" parent="1" source="OB0xpc5vKLzRvDVQ2PZP-124" target="OB0xpc5vKLzRvDVQ2PZP-98">
          <mxGeometry relative="1" as="geometry" />
        </mxCell>
        <mxCell id="OB0xpc5vKLzRvDVQ2PZP-124" value="Street" style="ellipse;whiteSpace=wrap;html=1;align=center;fontFamily=Helvetica;fontSize=11;fontColor=default;" vertex="1" parent="1">
          <mxGeometry x="300" y="90" width="100" height="40" as="geometry" />
        </mxCell>
        <mxCell id="OB0xpc5vKLzRvDVQ2PZP-130" style="edgeStyle=none;shape=connector;rounded=0;orthogonalLoop=1;jettySize=auto;html=1;exitX=0;exitY=0.5;exitDx=0;exitDy=0;entryX=1;entryY=0;entryDx=0;entryDy=0;labelBackgroundColor=default;strokeColor=default;align=center;verticalAlign=middle;fontFamily=Helvetica;fontSize=11;fontColor=default;endArrow=none;" edge="1" parent="1" source="OB0xpc5vKLzRvDVQ2PZP-125" target="OB0xpc5vKLzRvDVQ2PZP-98">
          <mxGeometry relative="1" as="geometry" />
        </mxCell>
        <mxCell id="OB0xpc5vKLzRvDVQ2PZP-125" value="City" style="ellipse;whiteSpace=wrap;html=1;align=center;fontFamily=Helvetica;fontSize=11;fontColor=default;" vertex="1" parent="1">
          <mxGeometry x="380" y="120" width="100" height="40" as="geometry" />
        </mxCell>
        <mxCell id="OB0xpc5vKLzRvDVQ2PZP-129" style="edgeStyle=none;shape=connector;rounded=0;orthogonalLoop=1;jettySize=auto;html=1;exitX=0;exitY=0.5;exitDx=0;exitDy=0;entryX=1;entryY=1;entryDx=0;entryDy=0;labelBackgroundColor=default;strokeColor=default;align=center;verticalAlign=middle;fontFamily=Helvetica;fontSize=11;fontColor=default;endArrow=none;" edge="1" parent="1" source="OB0xpc5vKLzRvDVQ2PZP-126" target="OB0xpc5vKLzRvDVQ2PZP-98">
          <mxGeometry relative="1" as="geometry" />
        </mxCell>
        <mxCell id="OB0xpc5vKLzRvDVQ2PZP-126" value="Postal Code" style="ellipse;whiteSpace=wrap;html=1;align=center;fontFamily=Helvetica;fontSize=11;fontColor=default;" vertex="1" parent="1">
          <mxGeometry x="390" y="170" width="100" height="40" as="geometry" />
        </mxCell>
        <mxCell id="OB0xpc5vKLzRvDVQ2PZP-128" style="edgeStyle=none;shape=connector;rounded=0;orthogonalLoop=1;jettySize=auto;html=1;exitX=0;exitY=0.5;exitDx=0;exitDy=0;entryX=0.5;entryY=1;entryDx=0;entryDy=0;labelBackgroundColor=default;strokeColor=default;align=center;verticalAlign=middle;fontFamily=Helvetica;fontSize=11;fontColor=default;endArrow=none;" edge="1" parent="1" source="OB0xpc5vKLzRvDVQ2PZP-127" target="OB0xpc5vKLzRvDVQ2PZP-98">
          <mxGeometry relative="1" as="geometry" />
        </mxCell>
        <mxCell id="OB0xpc5vKLzRvDVQ2PZP-127" value="Province" style="ellipse;whiteSpace=wrap;html=1;align=center;fontFamily=Helvetica;fontSize=11;fontColor=default;" vertex="1" parent="1">
          <mxGeometry x="320" y="200" width="100" height="40" as="geometry" />
        </mxCell>
        <mxCell id="OB0xpc5vKLzRvDVQ2PZP-132" value="Signing Date" style="ellipse;whiteSpace=wrap;html=1;align=center;fontFamily=Helvetica;fontSize=11;fontColor=default;" vertex="1" parent="1">
          <mxGeometry x="-200" y="390" width="100" height="40" as="geometry" />
        </mxCell>
        <mxCell id="OB0xpc5vKLzRvDVQ2PZP-139" style="edgeStyle=none;shape=connector;rounded=0;orthogonalLoop=1;jettySize=auto;html=1;exitX=1;exitY=0.5;exitDx=0;exitDy=0;entryX=0;entryY=0.5;entryDx=0;entryDy=0;labelBackgroundColor=default;strokeColor=default;align=center;verticalAlign=middle;fontFamily=Helvetica;fontSize=11;fontColor=default;endArrow=none;" edge="1" parent="1" source="OB0xpc5vKLzRvDVQ2PZP-133" target="OB0xpc5vKLzRvDVQ2PZP-8">
          <mxGeometry relative="1" as="geometry" />
        </mxCell>
        <mxCell id="OB0xpc5vKLzRvDVQ2PZP-133" value="Start Date" style="ellipse;whiteSpace=wrap;html=1;align=center;fontFamily=Helvetica;fontSize=11;fontColor=default;" vertex="1" parent="1">
          <mxGeometry x="-210" y="440" width="100" height="40" as="geometry" />
        </mxCell>
        <mxCell id="OB0xpc5vKLzRvDVQ2PZP-134" value="End Date" style="ellipse;whiteSpace=wrap;html=1;align=center;fontFamily=Helvetica;fontSize=11;fontColor=default;" vertex="1" parent="1">
          <mxGeometry x="-190" y="490" width="100" height="40" as="geometry" />
        </mxCell>
        <mxCell id="OB0xpc5vKLzRvDVQ2PZP-137" style="edgeStyle=none;shape=connector;rounded=0;orthogonalLoop=1;jettySize=auto;html=1;exitX=1;exitY=1;exitDx=0;exitDy=0;entryX=0;entryY=0;entryDx=0;entryDy=0;labelBackgroundColor=default;strokeColor=default;align=center;verticalAlign=middle;fontFamily=Helvetica;fontSize=11;fontColor=default;endArrow=none;" edge="1" parent="1" source="OB0xpc5vKLzRvDVQ2PZP-136" target="OB0xpc5vKLzRvDVQ2PZP-8">
          <mxGeometry relative="1" as="geometry" />
        </mxCell>
        <mxCell id="OB0xpc5vKLzRvDVQ2PZP-136" value="Monthly Rent" style="ellipse;whiteSpace=wrap;html=1;align=center;fontFamily=Helvetica;fontSize=11;fontColor=default;" vertex="1" parent="1">
          <mxGeometry x="-120" y="350" width="100" height="40" as="geometry" />
        </mxCell>
        <mxCell id="OB0xpc5vKLzRvDVQ2PZP-140" style="edgeStyle=none;shape=connector;rounded=0;orthogonalLoop=1;jettySize=auto;html=1;exitX=1;exitY=0.5;exitDx=0;exitDy=0;entryX=0.353;entryY=0.906;entryDx=0;entryDy=0;entryPerimeter=0;labelBackgroundColor=default;strokeColor=default;align=center;verticalAlign=middle;fontFamily=Helvetica;fontSize=11;fontColor=default;endArrow=none;" edge="1" parent="1" source="OB0xpc5vKLzRvDVQ2PZP-143" target="OB0xpc5vKLzRvDVQ2PZP-8">
          <mxGeometry relative="1" as="geometry">
            <mxPoint x="-14.644660940672566" y="535.8578643762689" as="sourcePoint" />
          </mxGeometry>
        </mxCell>
        <mxCell id="OB0xpc5vKLzRvDVQ2PZP-141" style="edgeStyle=none;shape=connector;rounded=0;orthogonalLoop=1;jettySize=auto;html=1;exitX=1;exitY=0.5;exitDx=0;exitDy=0;entryX=0.118;entryY=0.361;entryDx=0;entryDy=0;entryPerimeter=0;labelBackgroundColor=default;strokeColor=default;align=center;verticalAlign=middle;fontFamily=Helvetica;fontSize=11;fontColor=default;endArrow=none;" edge="1" parent="1" source="OB0xpc5vKLzRvDVQ2PZP-132" target="OB0xpc5vKLzRvDVQ2PZP-8">
          <mxGeometry relative="1" as="geometry" />
        </mxCell>
        <mxCell id="OB0xpc5vKLzRvDVQ2PZP-142" style="edgeStyle=none;shape=connector;rounded=0;orthogonalLoop=1;jettySize=auto;html=1;exitX=1;exitY=0.5;exitDx=0;exitDy=0;entryX=0.209;entryY=0.734;entryDx=0;entryDy=0;entryPerimeter=0;labelBackgroundColor=default;strokeColor=default;align=center;verticalAlign=middle;fontFamily=Helvetica;fontSize=11;fontColor=default;endArrow=none;" edge="1" parent="1" source="OB0xpc5vKLzRvDVQ2PZP-134" target="OB0xpc5vKLzRvDVQ2PZP-8">
          <mxGeometry relative="1" as="geometry" />
        </mxCell>
        <mxCell id="OB0xpc5vKLzRvDVQ2PZP-143" value="Duration" style="ellipse;whiteSpace=wrap;html=1;align=center;dashed=1;fontFamily=Helvetica;fontSize=11;fontColor=default;" vertex="1" parent="1">
          <mxGeometry x="-150" y="540" width="100" height="40" as="geometry" />
        </mxCell>
        <mxCell id="OB0xpc5vKLzRvDVQ2PZP-144" value="1" style="text;html=1;align=center;verticalAlign=middle;resizable=0;points=[];autosize=1;strokeColor=none;fillColor=none;fontSize=11;fontFamily=Helvetica;fontColor=default;" vertex="1" parent="1">
          <mxGeometry x="385" y="326" width="30" height="30" as="geometry" />
        </mxCell>
        <mxCell id="OB0xpc5vKLzRvDVQ2PZP-145" value="M" style="text;html=1;align=center;verticalAlign=middle;resizable=0;points=[];autosize=1;strokeColor=none;fillColor=none;fontSize=11;fontFamily=Helvetica;fontColor=default;" vertex="1" parent="1">
          <mxGeometry x="125" y="318" width="30" height="30" as="geometry" />
        </mxCell>
        <mxCell id="OB0xpc5vKLzRvDVQ2PZP-146" value="N" style="text;html=1;align=center;verticalAlign=middle;resizable=0;points=[];autosize=1;strokeColor=none;fillColor=none;fontSize=11;fontFamily=Helvetica;fontColor=default;" vertex="1" parent="1">
          <mxGeometry x="325" y="408" width="30" height="30" as="geometry" />
        </mxCell>
        <mxCell id="OB0xpc5vKLzRvDVQ2PZP-147" value="1" style="text;html=1;align=center;verticalAlign=middle;resizable=0;points=[];autosize=1;strokeColor=none;fillColor=none;fontSize=11;fontFamily=Helvetica;fontColor=default;" vertex="1" parent="1">
          <mxGeometry x="215" y="598" width="30" height="30" as="geometry" />
        </mxCell>
        <mxCell id="OB0xpc5vKLzRvDVQ2PZP-148" value="N" style="text;html=1;align=center;verticalAlign=middle;resizable=0;points=[];autosize=1;strokeColor=none;fillColor=none;fontSize=11;fontFamily=Helvetica;fontColor=default;" vertex="1" parent="1">
          <mxGeometry x="345" y="518" width="30" height="30" as="geometry" />
        </mxCell>
        <mxCell id="OB0xpc5vKLzRvDVQ2PZP-149" style="edgeStyle=none;shape=connector;rounded=0;orthogonalLoop=1;jettySize=auto;html=1;exitX=0.004;exitY=0.346;exitDx=0;exitDy=0;entryX=0.939;entryY=0.424;entryDx=0;entryDy=0;labelBackgroundColor=default;strokeColor=default;align=center;verticalAlign=middle;fontFamily=Helvetica;fontSize=11;fontColor=default;endArrow=none;exitPerimeter=0;entryPerimeter=0;" edge="1" parent="1" source="OB0xpc5vKLzRvDVQ2PZP-4" target="OB0xpc5vKLzRvDVQ2PZP-15">
          <mxGeometry relative="1" as="geometry">
            <mxPoint x="410" y="505" as="sourcePoint" />
            <mxPoint x="330" y="515" as="targetPoint" />
          </mxGeometry>
        </mxCell>
        <mxCell id="OB0xpc5vKLzRvDVQ2PZP-151" style="edgeStyle=none;shape=connector;rounded=0;orthogonalLoop=1;jettySize=auto;html=1;exitX=0.5;exitY=1;exitDx=0;exitDy=0;entryX=0.75;entryY=0;entryDx=0;entryDy=0;labelBackgroundColor=default;strokeColor=default;align=center;verticalAlign=middle;fontFamily=Helvetica;fontSize=11;fontColor=default;endArrow=none;" edge="1" parent="1">
          <mxGeometry relative="1" as="geometry">
            <mxPoint x="260" y="548" as="sourcePoint" />
            <mxPoint x="155" y="628" as="targetPoint" />
          </mxGeometry>
        </mxCell>
        <mxCell id="OB0xpc5vKLzRvDVQ2PZP-152" style="edgeStyle=none;shape=connector;rounded=0;orthogonalLoop=1;jettySize=auto;html=1;exitX=0;exitY=0.669;exitDx=0;exitDy=0;entryX=0.925;entryY=0.566;entryDx=0;entryDy=0;labelBackgroundColor=default;strokeColor=default;align=center;verticalAlign=middle;fontFamily=Helvetica;fontSize=11;fontColor=default;endArrow=none;exitPerimeter=0;entryPerimeter=0;" edge="1" parent="1" source="OB0xpc5vKLzRvDVQ2PZP-6" target="OB0xpc5vKLzRvDVQ2PZP-21">
          <mxGeometry relative="1" as="geometry">
            <mxPoint x="395" y="425" as="sourcePoint" />
            <mxPoint x="325" y="395" as="targetPoint" />
          </mxGeometry>
        </mxCell>
        <mxCell id="OB0xpc5vKLzRvDVQ2PZP-153" style="edgeStyle=none;shape=connector;rounded=0;orthogonalLoop=1;jettySize=auto;html=1;exitX=0.059;exitY=0.452;exitDx=0;exitDy=0;entryX=1.029;entryY=0.825;entryDx=0;entryDy=0;labelBackgroundColor=default;strokeColor=default;align=center;verticalAlign=middle;fontFamily=Helvetica;fontSize=11;fontColor=default;endArrow=none;exitPerimeter=0;entryPerimeter=0;" edge="1" parent="1" source="OB0xpc5vKLzRvDVQ2PZP-21" target="OB0xpc5vKLzRvDVQ2PZP-1">
          <mxGeometry relative="1" as="geometry">
            <mxPoint x="215" y="388" as="sourcePoint" />
            <mxPoint x="95" y="238" as="targetPoint" />
          </mxGeometry>
        </mxCell>
        <mxCell id="OB0xpc5vKLzRvDVQ2PZP-154" value="" style="endArrow=none;html=1;rounded=0;entryX=-0.009;entryY=0.622;entryDx=0;entryDy=0;exitX=0.949;exitY=0.545;exitDx=0;exitDy=0;entryPerimeter=0;exitPerimeter=0;" edge="1" parent="1" source="OB0xpc5vKLzRvDVQ2PZP-22" target="OB0xpc5vKLzRvDVQ2PZP-3">
          <mxGeometry relative="1" as="geometry">
            <mxPoint x="385" y="321" as="sourcePoint" />
            <mxPoint x="455" y="361" as="targetPoint" />
          </mxGeometry>
        </mxCell>
        <mxCell id="OB0xpc5vKLzRvDVQ2PZP-155" value="&lt;font style=&quot;font-size: 13px;&quot;&gt;Assumptions Made:&amp;nbsp;&lt;br&gt;&lt;br&gt;- A Property Manager must manage a Rental Property (otherwise, in what way is &lt;br&gt;&lt;span style=&quot;white-space: pre;&quot;&gt;&#x9;&lt;/span&gt;this person a Property Manager?)&lt;br&gt;- A Rental Property can exist before it is rented by a Rental Group&lt;br&gt;- A Rental Group can exist to look for a property before signing a Rental Agreement&lt;br&gt;- A Renter will always be in a Rental Group (even if it is just themself)&lt;br&gt;- A Rental Group rents a maximum of 1 Rental Property&lt;br&gt;- A Rental Property will not have more than 1 Property Manager&lt;/font&gt;" style="text;html=1;align=left;verticalAlign=middle;resizable=1;points=[];autosize=1;strokeColor=none;fillColor=none;fontSize=11;fontFamily=Helvetica;fontColor=default;movable=1;rotatable=1;deletable=1;editable=1;locked=0;connectable=1;" vertex="1" parent="1">
          <mxGeometry x="480" y="-47" width="500" height="150" as="geometry" />
        </mxCell>
        <mxCell id="OB0xpc5vKLzRvDVQ2PZP-159" style="edgeStyle=none;shape=connector;rounded=0;orthogonalLoop=1;jettySize=auto;html=1;exitX=0.5;exitY=0;exitDx=0;exitDy=0;entryX=0.25;entryY=1;entryDx=0;entryDy=0;labelBackgroundColor=default;strokeColor=default;align=center;verticalAlign=middle;fontFamily=Helvetica;fontSize=11;fontColor=default;endArrow=none;" edge="1" parent="1" source="OB0xpc5vKLzRvDVQ2PZP-156" target="OB0xpc5vKLzRvDVQ2PZP-4">
          <mxGeometry relative="1" as="geometry" />
        </mxCell>
        <mxCell id="OB0xpc5vKLzRvDVQ2PZP-156" value="Student Number" style="ellipse;whiteSpace=wrap;html=1;align=center;fontFamily=Helvetica;fontSize=11;fontColor=default;" vertex="1" parent="1">
          <mxGeometry x="355" y="570" width="100" height="40" as="geometry" />
        </mxCell>
        <mxCell id="OB0xpc5vKLzRvDVQ2PZP-160" style="edgeStyle=none;shape=connector;rounded=0;orthogonalLoop=1;jettySize=auto;html=1;exitX=0.5;exitY=0;exitDx=0;exitDy=0;entryX=0.5;entryY=1;entryDx=0;entryDy=0;labelBackgroundColor=default;strokeColor=default;align=center;verticalAlign=middle;fontFamily=Helvetica;fontSize=11;fontColor=default;endArrow=none;" edge="1" parent="1" source="OB0xpc5vKLzRvDVQ2PZP-157" target="OB0xpc5vKLzRvDVQ2PZP-4">
          <mxGeometry relative="1" as="geometry" />
        </mxCell>
        <mxCell id="OB0xpc5vKLzRvDVQ2PZP-157" value="Expected Graduation Year" style="ellipse;whiteSpace=wrap;html=1;align=center;fontFamily=Helvetica;fontSize=11;fontColor=default;" vertex="1" parent="1">
          <mxGeometry x="440" y="610" width="100" height="40" as="geometry" />
        </mxCell>
        <mxCell id="OB0xpc5vKLzRvDVQ2PZP-161" style="edgeStyle=none;shape=connector;rounded=0;orthogonalLoop=1;jettySize=auto;html=1;exitX=0;exitY=0;exitDx=0;exitDy=0;entryX=0.75;entryY=1;entryDx=0;entryDy=0;labelBackgroundColor=default;strokeColor=default;align=center;verticalAlign=middle;fontFamily=Helvetica;fontSize=11;fontColor=default;endArrow=none;" edge="1" parent="1" source="OB0xpc5vKLzRvDVQ2PZP-158" target="OB0xpc5vKLzRvDVQ2PZP-4">
          <mxGeometry relative="1" as="geometry" />
        </mxCell>
        <mxCell id="OB0xpc5vKLzRvDVQ2PZP-158" value="Program" style="ellipse;whiteSpace=wrap;html=1;align=center;fontFamily=Helvetica;fontSize=11;fontColor=default;" vertex="1" parent="1">
          <mxGeometry x="490" y="550" width="100" height="40" as="geometry" />
        </mxCell>
        <mxCell id="OB0xpc5vKLzRvDVQ2PZP-162" value="1" style="text;html=1;align=center;verticalAlign=middle;resizable=0;points=[];autosize=1;strokeColor=none;fillColor=none;fontSize=11;fontFamily=Helvetica;fontColor=default;" vertex="1" parent="1">
          <mxGeometry x="105" y="538" width="30" height="30" as="geometry" />
        </mxCell>
        <mxCell id="OB0xpc5vKLzRvDVQ2PZP-163" value="1" style="text;html=1;align=center;verticalAlign=middle;resizable=0;points=[];autosize=1;strokeColor=none;fillColor=none;fontSize=11;fontFamily=Helvetica;fontColor=default;" vertex="1" parent="1">
          <mxGeometry x="55" y="358" width="30" height="30" as="geometry" />
        </mxCell>
        <mxCell id="OB0xpc5vKLzRvDVQ2PZP-164" value="N" style="text;html=1;align=center;verticalAlign=middle;resizable=0;points=[];autosize=1;strokeColor=none;fillColor=none;fontSize=11;fontFamily=Helvetica;fontColor=default;" vertex="1" parent="1">
          <mxGeometry x="240" y="278" width="30" height="30" as="geometry" />
        </mxCell>
        <mxCell id="OB0xpc5vKLzRvDVQ2PZP-166" style="edgeStyle=none;shape=connector;rounded=0;orthogonalLoop=1;jettySize=auto;html=1;exitX=0;exitY=0.5;exitDx=0;exitDy=0;entryX=1;entryY=0;entryDx=0;entryDy=0;labelBackgroundColor=default;strokeColor=default;align=center;verticalAlign=middle;fontFamily=Helvetica;fontSize=11;fontColor=default;endArrow=none;" edge="1" parent="1" source="OB0xpc5vKLzRvDVQ2PZP-165" target="OB0xpc5vKLzRvDVQ2PZP-22">
          <mxGeometry relative="1" as="geometry" />
        </mxCell>
        <mxCell id="OB0xpc5vKLzRvDVQ2PZP-165" value="Year Management Begun" style="ellipse;whiteSpace=wrap;html=1;align=center;fontFamily=Helvetica;fontSize=11;fontColor=default;" vertex="1" parent="1">
          <mxGeometry x="405" y="286" width="100" height="40" as="geometry" />
        </mxCell>
        <mxCell id="OB0xpc5vKLzRvDVQ2PZP-167" value="Total" style="text;html=1;align=center;verticalAlign=middle;resizable=0;points=[];autosize=1;strokeColor=none;fillColor=none;fontSize=11;fontFamily=Helvetica;fontColor=default;" vertex="1" parent="1">
          <mxGeometry x="-10" y="155" width="50" height="30" as="geometry" />
        </mxCell>
        <mxCell id="OB0xpc5vKLzRvDVQ2PZP-168" value="Total" style="text;html=1;align=center;verticalAlign=middle;resizable=0;points=[];autosize=1;strokeColor=none;fillColor=none;fontSize=11;fontFamily=Helvetica;fontColor=default;" vertex="1" parent="1">
          <mxGeometry x="560" y="395" width="50" height="30" as="geometry" />
        </mxCell>
        <mxCell id="OB0xpc5vKLzRvDVQ2PZP-172" style="edgeStyle=none;shape=connector;rounded=0;orthogonalLoop=1;jettySize=auto;html=1;exitX=0.75;exitY=1;exitDx=0;exitDy=0;entryX=-0.017;entryY=0.857;entryDx=0;entryDy=0;entryPerimeter=0;labelBackgroundColor=default;strokeColor=default;align=center;verticalAlign=middle;fontFamily=Helvetica;fontSize=11;fontColor=default;endArrow=none;" edge="1" parent="1" source="OB0xpc5vKLzRvDVQ2PZP-3" target="OB0xpc5vKLzRvDVQ2PZP-168">
          <mxGeometry relative="1" as="geometry" />
        </mxCell>
        <mxCell id="OB0xpc5vKLzRvDVQ2PZP-174" value="Furnishings" style="ellipse;shape=doubleEllipse;margin=3;whiteSpace=wrap;html=1;align=center;fontFamily=Helvetica;fontSize=11;fontColor=default;" vertex="1" parent="1">
          <mxGeometry x="80" y="-100" width="100" height="40" as="geometry" />
        </mxCell>
      </root>
    </mxGraphModel>
  </diagram>
</mxfile>
